<svg width="140" height="20" viewBox="0 0 140 20" fill="none" xmlns="http://www.w3.org/2000/svg">
<g clip-path="url(#clip0_21803_21021)">
<path d="M8.4 14.4263C10.1294 13.6885 11.1176 12.1312 11.1176 10.3279C11.1176 7.29511 8.97647 5.65576 5.02353 5.65576C3.70588 5.65576 1.07059 5.73773 0.0823529 5.90166H0V19.7541H3.12941V15.082H5.27059L8.72941 19.6722H12.5176L8.4 14.4263ZM7.90588 10.4099C7.90588 11.8853 6.91765 12.541 5.10588 12.541H3.12941V8.27871C3.45882 8.27871 4.77647 8.19675 5.02353 8.19675C6.91765 8.27871 7.90588 9.01642 7.90588 10.4099Z" fill="#202945"/>
<path d="M22.6466 13.6886C22.6466 10.3279 20.9172 8.52466 17.7055 8.52466C14.329 8.52466 12.1055 10.9017 12.1055 14.3443C12.1055 17.705 14.4937 19.9181 18.1172 19.9181C19.8466 19.9181 21.2466 19.5902 22.2349 18.9345V16.3115L22.1525 16.3935C20.9996 17.0492 19.8466 17.3771 18.3643 17.3771C16.9643 17.3771 15.3172 16.6394 15.0702 15.164H22.5643V13.6886H22.6466ZM15.1525 13.2788C15.4819 11.8853 16.3055 11.0656 17.5408 11.0656C18.7761 11.0656 19.5996 11.8853 19.5996 13.2788H15.1525Z" fill="#202945"/>
<path d="M28.3299 12.8689C27.2593 12.623 26.9299 12.3771 26.9299 11.8033C26.9299 11.2296 27.424 10.9017 28.3299 10.9017C29.4005 10.9017 30.3887 11.2296 31.5416 11.9673L31.624 12.0492V9.34433C30.5534 8.77056 29.5652 8.52466 28.2475 8.52466C25.5299 8.52466 23.8828 9.83613 23.8828 12.0492C23.8828 14.0165 24.9534 15.0001 27.5887 15.4919C28.9063 15.7378 29.3181 15.9837 29.3181 16.6394C29.3181 17.2132 28.824 17.5411 27.7534 17.5411C26.6005 17.5411 25.2005 17.0492 24.1299 16.3115L24.0475 16.2296V19.0984C24.9534 19.6722 26.3534 20.0001 27.7534 20.0001C30.6358 20.0001 32.3652 18.7706 32.3652 16.5574C32.3652 14.4263 31.2122 13.3607 28.3299 12.8689Z" fill="#202945"/>
<path d="M39.2823 8.52466C35.8234 8.52466 33.2705 10.9017 33.2705 14.2624C33.2705 17.623 35.8234 20.0001 39.2823 20.0001C42.7411 20.0001 45.294 17.623 45.294 14.2624C45.294 10.9017 42.7411 8.52466 39.2823 8.52466ZM39.2823 17.2952C37.6352 17.2952 36.4823 16.0656 36.4823 14.2624C36.4823 12.4591 37.6352 11.2296 39.2823 11.2296C40.9293 11.2296 42.0823 12.4591 42.0823 14.2624C42.0823 16.0656 40.9293 17.2952 39.2823 17.2952Z" fill="#202945"/>
<path d="M57.7292 8.77051V17.2951C57.2351 17.3771 56.6586 17.459 56.1645 17.459C54.5998 17.459 54.0233 16.8853 54.0233 15.4918V8.77051H50.8115V15.7377C50.8115 18.6885 52.4586 20 56.1645 20C57.6468 20 59.6233 19.7541 60.8586 19.4262H60.9409V8.77051H57.7292Z" fill="#202945"/>
<path d="M74.9409 8.77051H71.8115V19.6721H74.9409V8.77051Z" fill="#202945"/>
<path d="M82.1055 8.52466C78.6467 8.52466 76.0938 10.9017 76.0938 14.2624C76.0938 17.5411 78.6467 20.0001 82.1055 20.0001C85.5643 20.0001 88.1173 17.623 88.1173 14.2624C88.1173 10.9017 85.6467 8.52466 82.1055 8.52466ZM84.9055 14.2624C84.9055 16.0656 83.7526 17.2952 82.1055 17.2952C80.4585 17.2952 79.3055 16.0656 79.3055 14.2624C79.3055 12.4591 80.4585 11.2296 82.1055 11.2296C83.8349 11.1476 84.9055 12.3771 84.9055 14.2624Z" fill="#202945"/>
<path d="M94.7878 8.52466C93.0584 8.52466 90.9172 8.93449 89.3525 9.50827V19.7542H92.482V11.6394C93.1408 11.4755 93.882 11.3115 94.5408 11.3115C95.8584 11.3115 96.5172 11.8853 96.5172 13.1148V19.7542H99.729V12.8689C99.729 9.9181 98.1643 8.52466 94.7878 8.52466Z" fill="#202945"/>
<path d="M109.612 16.8853V5.16394H106.235V19.7541H115.459V16.8853H109.612Z" fill="#202945"/>
<path d="M119.906 8.77051H116.776V19.6721H119.906V8.77051Z" fill="#202945"/>
<path d="M119.906 4.42627H116.776V7.37709H119.906V4.42627Z" fill="#202945"/>
<path d="M127.811 6.39345H129.129V3.60657H127.399C124.682 3.60657 123.199 5.16394 123.199 7.86886V8.7705H121.388V11.3115H123.199V19.6721H126.411V11.3115H129.211V8.7705H126.411V7.86886C126.329 6.88526 126.823 6.39345 127.811 6.39345Z" fill="#202945"/>
<path d="M139.999 13.6886C139.999 10.3279 138.27 8.52466 135.058 8.52466C131.682 8.52466 129.458 10.9017 129.458 14.3443C129.458 17.705 131.846 19.9181 135.47 19.9181C137.199 19.9181 138.599 19.5902 139.587 18.9345V16.3115L139.505 16.3935C138.352 17.0492 137.199 17.3771 135.717 17.3771C134.317 17.3771 132.67 16.6394 132.423 15.164H139.917V13.6886H139.999ZM132.587 13.2788C132.917 11.8853 133.74 11.0656 134.976 11.0656C136.211 11.0656 137.034 11.8853 137.034 13.2788H132.587Z" fill="#202945"/>
<path d="M46.3643 4.67213V19.7541H49.4937V3.44263L46.3643 4.67213Z" fill="#202945"/>
<path d="M70.3294 16.8033C69.7529 17.0492 69.1764 17.2131 68.6 17.2131C67.6117 17.2131 67.1176 16.7213 67.1176 15.6557V11.3934H70.3294V8.85245H67.1176V4.83606L63.9882 6.06557V8.85245H62.2588V11.3934H63.9882V16.3934C63.9882 18.6885 65.3882 20 67.7764 20C68.7647 20 69.5882 19.8361 70.3294 19.5082V16.7213V16.8033Z" fill="#202945"/>
<path d="M71.8115 7.29508V0H87.4586L71.8115 7.29508Z" fill="#E53E51"/>
</g>
<defs>
<clipPath id="clip0_21803_21021">
<rect width="140" height="20" fill="white"/>
</clipPath>
</defs>
</svg>
